<?xml version="1.0" encoding="UTF-8"?>
<svg version="1.1" xmlns="http://www.w3.org/2000/svg" width="502" height="502">
<path d="M0 0 C11.08878853 7.73636409 11.36623002 21.8907482 13.64569092 34.2769165 C17.07999073 52.89245708 20.77934783 71.45260504 24.5625 90 C24.9425116 91.86315353 24.9425116 91.86315353 25.3302002 93.76394653 C28.97608884 111.62083729 32.66107522 129.46964061 36.375 147.3125 C36.58936707 148.34272278 36.80373413 149.37294556 37.02459717 150.43438721 C37.62335791 153.30935647 38.22344895 156.18404371 38.82421875 159.05859375 C38.99967728 159.90045731 39.1751358 160.74232086 39.35591125 161.60969543 C39.51778427 162.38230209 39.67965729 163.15490875 39.84643555 163.95092773 C39.9856694 164.61680405 40.12490326 165.28268036 40.26835632 165.96873474 C40.70356262 167.94805281 41.18679208 169.91132267 41.6875 171.875 C44.97481755 159.81956497 47.98112673 147.70270462 50.9375 135.5625 C51.18004517 134.56870331 51.42259033 133.57490662 51.67248535 132.55099487 C54.64760745 120.35871098 57.58307451 108.15859985 60.4375 95.9375 C63.89361967 81.18714112 67.37823253 66.44344536 70.90741348 51.71039104 C71.75377774 48.17647907 72.59716861 44.64192261 73.4329834 41.10549927 C74.37786253 37.1083251 75.33686721 33.11466163 76.296875 29.12109375 C76.57893799 27.91931488 76.86100098 26.71753601 77.15161133 25.4793396 C79.34275613 16.44183198 81.33043265 8.25594586 88.61328125 2.06640625 C95.52388575 -1.90296169 103.27003208 -1.46502759 110.96582031 -1.44067383 C113.0506646 -1.43751792 115.13408086 -1.46100726 117.21875 -1.48632812 C126.16064838 -1.52898457 133.33589724 -0.83448851 141 3.9375 C148.31570881 11.93373986 149.70304689 24.32240394 152.14453125 34.59765625 C152.56854389 36.35839156 152.99315475 38.1189829 153.4183197 39.87944031 C154.55360391 44.58945305 155.67911533 49.30174958 156.80241394 54.01463318 C157.73475955 57.92113618 158.67284578 61.82625184 159.61076164 65.73142052 C166.33918938 93.75517708 172.91537883 121.81347756 179.33129883 149.91040039 C179.76860069 151.82391045 179.76860069 151.82391045 180.21473694 153.77607727 C180.75259248 156.13255223 181.28894199 158.48937166 181.82347107 160.84660339 C182.17333824 162.3819146 182.17333824 162.3819146 182.53027344 163.94824219 C182.73118591 164.83388855 182.93209839 165.71953491 183.13909912 166.63201904 C183.69097632 169.02187339 183.69097632 169.02187339 184.6875 171.875 C188.23881263 156.90040465 191.59673467 141.88633907 194.828125 126.83984375 C195.0201972 125.94602053 195.2122694 125.0521973 195.41016197 124.13128853 C198.52984957 109.58113435 201.49055182 95.00310777 204.36328125 80.40234375 C204.65029813 78.94616638 204.65029813 78.94616638 204.94311333 77.46057129 C206.7009197 68.54178417 208.45429484 59.62215067 210.18969727 50.69897461 C211.15702098 45.72743624 212.13474931 40.75803941 213.11916161 35.78985786 C213.48544944 33.9308356 213.84788247 32.07104896 214.20614052 30.21046257 C218.48597752 7.99648441 218.48597752 7.99648441 224.1875 2.4375 C230.0784383 -1.24433643 234.72001824 -2.19692027 241.6875 -1.125 C246.37197258 0.90563834 249.69468513 3.55124684 252.75 7.625 C254.96061505 15.28846551 253.52520176 23.19105021 251.9921875 30.87109375 C251.80841553 31.82871613 251.62464355 32.7863385 251.43530273 33.77297974 C250.82110532 36.95487062 250.1924059 40.13368421 249.5625 43.3125 C249.11843111 45.58516186 248.67458931 47.8578681 248.23095703 50.13061523 C240.31498995 90.46610816 232.06896571 130.78416132 222.64257812 170.79541016 C221.55952275 175.40463625 220.50639799 180.02061194 219.453125 184.63671875 C216.01858222 199.67522586 212.55285946 214.70635921 208.875 229.6875 C208.60937256 230.78892334 208.34374512 231.89034668 208.07006836 233.02514648 C202.84303211 254.00718925 202.84303211 254.00718925 193.81689453 259.48120117 C185.53032963 263.50829688 176.2310693 262.48816961 167.2421875 262.36328125 C165.261087 262.3539425 163.27997487 262.34683141 161.29885864 262.34184265 C156.11352007 262.3228565 150.92889453 262.27382874 145.74383545 262.21832275 C140.44130088 262.16694851 135.13864982 262.14428995 129.8359375 262.11914062 C119.45276315 262.06570099 109.07030274 261.97783449 98.6875 261.875 C98.6875 249.995 98.6875 238.115 98.6875 225.875 C119.1475 225.545 139.6075 225.215 160.6875 224.875 C158.28818899 213.57809601 158.28818899 213.57809601 155.59716797 202.36254883 C155.40912409 201.61825402 155.22108021 200.87395922 155.02733803 200.10711002 C154.41386809 197.68146505 153.79680872 195.25674959 153.1796875 192.83203125 C152.73663491 191.08323702 152.29381053 189.33438496 151.85119629 187.58547974 C150.66909189 182.91730915 149.48385514 178.24993944 148.29790497 173.5827446 C147.06234605 168.71842436 145.82940652 163.85344026 144.59619141 158.98852539 C142.84264169 152.07198779 141.08805591 145.15571441 139.33228111 138.23974133 C136.61359958 127.53053005 133.90186294 116.819584 131.19536972 106.10728645 C130.03140562 101.50125857 128.86616765 96.89555284 127.70083809 92.28987026 C126.79945689 88.72713901 125.89868481 85.1642565 124.99945068 81.60098267 C124.00985432 77.67999105 123.01678791 73.75988598 122.0234375 69.83984375 C121.60137024 68.16415817 121.60137024 68.16415817 121.17077637 66.45462036 C119.41603142 59.54401878 117.49604538 52.70131778 115.44522095 45.87232971 C114.6875 42.875 114.6875 42.875 114.6875 38.875 C114.0275 38.875 113.3675 38.875 112.6875 38.875 C110.51088699 47.5658615 108.34273177 56.25879411 106.18075562 64.95330811 C99.29488966 92.6377949 92.37085821 120.30827806 85.14373779 147.90609741 C81.12225799 163.26765359 77.21107182 178.65361802 73.375 194.0625 C72.8741291 196.07098989 72.37315421 198.07945386 71.87207031 200.08789062 C69.1587092 210.96381673 69.1587092 210.96381673 66.45556641 221.84228516 C65.54083897 225.52884896 64.61709311 229.21302897 63.68569946 232.89541626 C63.20801714 234.79347564 62.73990002 236.69393455 62.2722168 238.59448242 C58.02475602 255.29812788 58.02475602 255.29812788 50.60546875 259.96484375 C45.77303455 262.25803554 41.5446397 262.40381539 36.5 260.6875 C32.16879774 258.98237406 28.60987703 256.45860254 26.24746704 252.40264893 C22.9947824 244.23677176 20.7013513 235.95078465 18.6484375 227.421875 C18.28288912 225.93404155 17.91655653 224.44640058 17.54949951 222.9589386 C16.57612411 219.00271441 15.61529298 215.0435518 14.65781403 211.08345413 C13.8559433 207.77198772 13.0476969 204.46208891 12.23979759 201.15208912 C9.69757405 190.73233064 7.18399028 180.30580361 4.6875 169.875 C4.39045166 168.63397522 4.09340332 167.39295044 3.78735352 166.11431885 C-6.02240557 125.02697138 -14.66584307 83.65079791 -22.53604126 42.14956665 C-22.88168919 40.32791728 -23.22989433 38.5067509 -23.5809021 36.68612671 C-28.01115641 13.61117278 -28.01115641 13.61117278 -24.3125 6.5 C-18.46990296 -1.5847141 -9.14469941 -3.10574697 0 0 Z " fill="#000000" transform="translate(134.3125,125.125)"/>
<path d="M0 0 C0.84665726 -0.00708481 1.69331451 -0.01416962 2.56562805 -0.02146912 C3.48624527 -0.0189917 4.40686249 -0.01651428 5.3553772 -0.01396179 C6.81946266 -0.02162819 6.81946266 -0.02162819 8.31312561 -0.02944946 C11.54162722 -0.0433562 14.76991559 -0.04238774 17.9984436 -0.04008484 C20.24279866 -0.04397141 22.48715298 -0.048306 24.73150635 -0.05307007 C29.43737166 -0.06053479 34.14316195 -0.06023933 38.84902954 -0.05497742 C44.87719654 -0.04918511 50.90505606 -0.06610701 56.93317223 -0.08932209 C61.56917108 -0.10406053 66.20509592 -0.10493092 70.84111404 -0.10181236 C73.06344842 -0.1023256 75.28578694 -0.10756385 77.5080986 -0.11762428 C80.61755031 -0.12997205 83.72640369 -0.12320642 86.83584595 -0.11161804 C87.7524147 -0.11926178 88.66898346 -0.12690552 89.61332703 -0.13478088 C95.60810076 -0.08544453 99.97882481 0.77934602 104.58828735 4.94429016 C105.06652954 5.52307922 105.54477173 6.10186829 106.0375061 6.69819641 C106.77420532 7.56251282 106.77420532 7.56251282 107.52578735 8.44429016 C110.14460257 12.41089952 110.03432695 16.62088377 109.7250061 21.26069641 C108.5282818 26.93690253 106.15715771 30.34528785 101.73672485 34.03413391 C96.17603497 37.42453512 90.75316361 37.55363566 84.45010376 37.53535461 C83.53548874 37.54046555 82.62087372 37.54557648 81.67854309 37.55084229 C78.66531772 37.56470345 75.652322 37.56378403 72.6390686 37.56147766 C70.53688472 37.56536667 68.43470162 37.56970176 66.33251953 37.57446289 C61.9294683 37.58191776 57.52649725 37.58163924 53.1234436 37.57637024 C47.4923578 37.57057851 41.86160123 37.58750317 36.23056984 37.61071491 C31.88958835 37.6254764 27.5486857 37.62632062 23.20768356 37.62320518 C21.1321383 37.62371724 19.05658849 37.62893322 16.98106766 37.63901711 C14.07339597 37.65141005 11.1663597 37.64457243 8.25869751 37.63301086 C7.40856583 37.6406546 6.55843414 37.64829834 5.68254089 37.65617371 C-0.55467678 37.60160045 -6.30443581 36.68072636 -11.2984314 32.61225891 C-15.78671469 26.87867158 -17.91217162 22.77939354 -17.2749939 15.26069641 C-15.86584766 9.04387476 -13.47972594 5.87214314 -8.2749939 2.26069641 C-5.38709245 0.58500537 -3.33191786 0.00932732 0 0 Z " fill="#010101" transform="translate(201.27499389648438,418.7393035888672)"/>
<path d="M0 0 C1.11098557 -0.0076664 1.11098557 -0.0076664 2.24441528 -0.01548767 C4.67808244 -0.02931917 7.11146437 -0.02843187 9.54516602 -0.02612305 C11.24618127 -0.03001337 12.94719557 -0.03434873 14.64820862 -0.03910828 C18.20805006 -0.04655651 21.76779231 -0.04628924 25.32763672 -0.04101562 C29.87820446 -0.03522118 34.42836515 -0.05215804 38.97886562 -0.0753603 C42.49028375 -0.09012701 46.00160449 -0.09096538 49.51304817 -0.08785057 C51.19029611 -0.08836225 52.86754972 -0.09357111 54.54476738 -0.10366249 C56.89469369 -0.11606769 59.24383525 -0.10921154 61.59375 -0.09765625 C62.27916367 -0.10529999 62.96457733 -0.11294373 63.67076111 -0.12081909 C69.85641821 -0.05394894 74.31121645 1.59709435 79.11157227 5.5246582 C82.49747136 9.66297932 84.12384073 13.40676759 84.79907227 18.7121582 C84.05666302 24.75749063 81.80203905 28.76871566 77.61157227 33.1496582 C71.64303092 37.052166 65.59919266 37.52761642 58.60375977 37.47338867 C57.87417053 37.47035233 57.1445813 37.46731598 56.3928833 37.46418762 C54.00721828 37.4510225 51.62207398 37.42237351 49.23657227 37.3918457 C47.56323574 37.37579993 45.88989577 37.36010971 44.21655273 37.34475708 C40.7198421 37.30988917 37.22335277 37.26656876 33.72680664 37.21801758 C29.26176807 37.15728605 24.79699216 37.12404392 20.33163452 37.09795952 C16.87918492 37.07363522 13.42712048 37.03141119 9.97491455 36.98422623 C8.32926705 36.96446495 6.68353195 36.95092181 5.03778076 36.94390488 C-11.06059447 36.86100868 -11.06059447 36.86100868 -17.63842773 32.2746582 C-21.67947172 27.1974491 -23.00254128 23.04849796 -22.91967773 16.6887207 C-22.30940469 11.45054373 -19.94267954 7.57891 -16.26342773 3.8996582 C-11.01808404 0.65254068 -6.06678104 -0.02186372 0 0 Z " fill="#000000" transform="translate(216.638427734375,56.725341796875)"/>
<path d="M0 0 C3.47762057 3.08243641 5.45108635 5.96436613 6.75 10.4375 C7.03812337 15.32659346 5.89850964 19.65928843 2.75 23.4375 C-2.08337252 27.08718946 -5.83246514 28.106485 -11.88671875 27.8125 C-16.30382298 27.11160412 -18.89200386 25.266048 -21.53515625 21.70703125 C-24.13584 17.29027681 -24.79722308 13.59605827 -23.91796875 8.546875 C-22.34274258 3.57247657 -19.31398643 1.05983168 -14.9375 -1.5 C-9.1954929 -3.15447662 -5.35234521 -2.57324289 0 0 Z " fill="#020202" transform="translate(73.25,340.5625)"/>
<path d="M0 0 C4.39891134 3.71463624 6.44396042 7.12281366 7.375 12.8125 C6.47867577 18.48922014 3.84076486 22.52058641 -0.375 26.375 C-5.26401051 28.11331485 -10.33762255 28.36210839 -15.28515625 26.6484375 C-19.19509593 24.6063034 -21.66300065 22.50011589 -23.1875 18.375 C-23.89243182 12.44761553 -23.75588675 7.37074145 -20.1875 2.375 C-13.43732138 -2.93897041 -7.92119855 -4.03825809 0 0 Z " fill="#010101" transform="translate(440.1875,340.625)"/>
<path d="M0 0 C5.13308791 2.61320839 8.1797908 5.53937241 10 11 C10.50201239 17.12455118 10.09928344 20.12517646 6 25 C2.48142633 28.42597963 -0.06863366 29.80661308 -5 30 C-11.53289683 29.38467705 -14.833268 26.97975288 -19 22 C-20.78983568 16.63049295 -20.88431724 11.80264667 -18.375 6.6875 C-12.92481032 0.5201801 -8.07790899 -1.31348114 0 0 Z " fill="#010101" transform="translate(67,84)"/>
<path d="M0 0 C4.41574206 2.85613955 6.52511941 5.97505716 7.8984375 11.125 C8.27994069 16.37299517 7.38442924 20.03481553 4.0234375 24.125 C1.39919707 26.97342178 -0.6356985 27.96160752 -4.5546875 28.3984375 C-10.18076753 28.6027365 -14.32767479 28.49784371 -18.72265625 24.73828125 C-21.69820503 21.25697347 -23.22034962 17.65754149 -23.00390625 13.04296875 C-21.99814151 7.93602741 -19.74842466 4.77186216 -16.1015625 1.125 C-11.24236596 -1.8394155 -5.27015455 -2.19426509 0 0 Z " fill="#010101" transform="translate(433.1015625,84.875)"/>
</svg>
